<svg viewBox="0 0 400 250" xmlns="http://www.w3.org/2000/svg">
<rect width="400" height="250" fill="#233657"/>
<rect x="0" y="200" width="400" height="50" fill="#1B2C52"/>
<rect x="90" y="30" width="220" height="170" rx="6" fill="#12203E"/>
<rect x="70" y="20" width="260" height="14" fill="#D9584B"/>
<g fill="#E8A33D">
<rect x="115" y="55" width="28" height="28" rx="2"/>
<rect x="160" y="55" width="28" height="28" rx="2"/>
<rect x="205" y="55" width="28" height="28" rx="2"/>
<rect x="250" y="55" width="28" height="28" rx="2"/>
</g>
<g fill="#4C8C6B">
<rect x="115" y="100" width="28" height="28" rx="2"/>
<rect x="160" y="100" width="28" height="28" rx="2"/>
<rect x="205" y="100" width="28" height="28" rx="2"/>
<rect x="250" y="100" width="28" height="28" rx="2"/>
</g>
<rect x="175" y="150" width="50" height="50" fill="#0E1830"/>
<circle cx="200" cy="175" r="4" fill="#E8A33D"/>
</svg>
