<svg viewBox="0 0 400 250" xmlns="http://www.w3.org/2000/svg">
<defs>
  <linearGradient id="sky3" x1="0" y1="0" x2="0" y2="1">
    <stop offset="0%" stop-color="#2C4368"/>
    <stop offset="100%" stop-color="#182746"/>
  </linearGradient>
  <linearGradient id="facade3" x1="0" y1="0" x2="0" y2="1">
    <stop offset="0%" stop-color="#17284C"/>
    <stop offset="100%" stop-color="#0F1C38"/>
  </linearGradient>
  <linearGradient id="win3a" x1="0" y1="0" x2="0" y2="1">
    <stop offset="0%" stop-color="#F4C673"/>
    <stop offset="100%" stop-color="#E8A33D"/>
  </linearGradient>
  <linearGradient id="win3b" x1="0" y1="0" x2="0" y2="1">
    <stop offset="0%" stop-color="#E8836F"/>
    <stop offset="100%" stop-color="#D9584B"/>
  </linearGradient>
  <linearGradient id="ground3" x1="0" y1="0" x2="0" y2="1">
    <stop offset="0%" stop-color="#233657"/>
    <stop offset="100%" stop-color="#0E1830"/>
  </linearGradient>
  <radialGradient id="glow3" cx="15%" cy="20%" r="30%">
    <stop offset="0%" stop-color="#E8A33D" stop-opacity="0.25"/>
    <stop offset="100%" stop-color="#E8A33D" stop-opacity="0"/>
  </radialGradient>
</defs>

<rect width="400" height="250" fill="url(#sky3)"/>
<circle cx="55" cy="45" r="30" fill="url(#glow3)"/>

<rect x="0" y="205" width="400" height="45" fill="url(#ground3)"/>
<rect x="0" y="205" width="400" height="4" fill="#0A1226"/>

<!-- symmetrical central block with wings -->
<rect x="60" y="70" width="60" height="135" fill="#122142"/>
<rect x="280" y="70" width="60" height="135" fill="#122142"/>
<rect x="100" y="40" width="200" height="165" rx="4" fill="url(#facade3)"/>
<rect x="82" y="30" width="236" height="12" fill="#D9584B"/>

<g>
  <rect x="122" y="62" width="26" height="26" rx="2" fill="url(#win3a)"/>
  <rect x="164" y="62" width="26" height="26" rx="2" fill="#20345C"/>
  <rect x="206" y="62" width="26" height="26" rx="2" fill="url(#win3a)"/>
  <rect x="248" y="62" width="26" height="26" rx="2" fill="#20345C"/>

  <rect x="122" y="104" width="26" height="26" rx="2" fill="#20345C"/>
  <rect x="164" y="104" width="26" height="26" rx="2" fill="url(#win3b)"/>
  <rect x="206" y="104" width="26" height="26" rx="2" fill="#20345C"/>
  <rect x="248" y="104" width="26" height="26" rx="2" fill="url(#win3a)"/>

  <rect x="122" y="146" width="26" height="26" rx="2" fill="url(#win3a)"/>
  <rect x="248" y="146" width="26" height="26" rx="2" fill="url(#win3b)"/>
</g>

<!-- central grand entrance -->
<rect x="170" y="146" width="60" height="59" fill="#0A1226"/>
<rect x="170" y="146" width="60" height="5" fill="#E8A33D"/>
<rect x="198" y="160" width="4" height="45" fill="#E8A33D" opacity="0.6"/>
<circle cx="200" cy="175" r="3" fill="#F4C673"/>

<!-- steps -->
<rect x="158" y="205" width="84" height="6" fill="#2A3F6B"/>
<rect x="150" y="211" width="100" height="6" fill="#233A64"/>

<!-- landscaping -->
<circle cx="90" cy="196" r="12" fill="#4C8C6B" opacity="0.85"/>
<rect x="88" y="206" width="4" height="12" fill="#3A6B52"/>
<circle cx="310" cy="196" r="12" fill="#4C8C6B" opacity="0.85"/>
<rect x="308" y="206" width="4" height="12" fill="#3A6B52"/>
</svg>
