<svg viewBox="0 0 400 250" xmlns="http://www.w3.org/2000/svg">
<defs>
  <linearGradient id="sky1" x1="0" y1="0" x2="0" y2="1">
    <stop offset="0%" stop-color="#2A3F6B"/>
    <stop offset="100%" stop-color="#182746"/>
  </linearGradient>
  <linearGradient id="facade1" x1="0" y1="0" x2="0" y2="1">
    <stop offset="0%" stop-color="#16264A"/>
    <stop offset="100%" stop-color="#0F1C38"/>
  </linearGradient>
  <linearGradient id="win1" x1="0" y1="0" x2="0" y2="1">
    <stop offset="0%" stop-color="#F4C673"/>
    <stop offset="100%" stop-color="#E8A33D"/>
  </linearGradient>
  <linearGradient id="win1b" x1="0" y1="0" x2="0" y2="1">
    <stop offset="0%" stop-color="#5FA57D"/>
    <stop offset="100%" stop-color="#4C8C6B"/>
  </linearGradient>
  <radialGradient id="glow1" cx="85%" cy="15%" r="35%">
    <stop offset="0%" stop-color="#F4C673" stop-opacity="0.35"/>
    <stop offset="100%" stop-color="#F4C673" stop-opacity="0"/>
  </radialGradient>
  <linearGradient id="ground1" x1="0" y1="0" x2="0" y2="1">
    <stop offset="0%" stop-color="#1B2C52"/>
    <stop offset="100%" stop-color="#0E1830"/>
  </linearGradient>
</defs>

<rect width="400" height="250" fill="url(#sky1)"/>
<circle cx="340" cy="38" r="26" fill="url(#glow1)"/>
<circle cx="340" cy="38" r="12" fill="#F4C673" opacity="0.85"/>

<rect x="0" y="150" width="55" height="55" fill="#1E3159" opacity="0.6"/>
<rect x="355" y="140" width="45" height="65" fill="#1E3159" opacity="0.6"/>

<rect x="0" y="196" width="400" height="54" fill="url(#ground1)"/>
<rect x="0" y="196" width="400" height="4" fill="#0A1226"/>

<rect x="255" y="52" width="18" height="144" fill="#0B152C"/>
<rect x="70" y="52" width="185" height="144" rx="4" fill="url(#facade1)"/>
<rect x="70" y="52" width="185" height="8" fill="#E8A33D"/>

<g>
  <rect x="90" y="76" width="26" height="26" rx="2" fill="url(#win1)"/>
  <rect x="128" y="76" width="26" height="26" rx="2" fill="#233A64"/>
  <rect x="166" y="76" width="26" height="26" rx="2" fill="url(#win1b)"/>
  <rect x="204" y="76" width="26" height="26" rx="2" fill="url(#win1)"/>

  <rect x="90" y="114" width="26" height="26" rx="2" fill="#233A64"/>
  <rect x="128" y="114" width="26" height="26" rx="2" fill="url(#win1)"/>
  <rect x="166" y="114" width="26" height="26" rx="2" fill="#233A64"/>
  <rect x="204" y="114" width="26" height="26" rx="2" fill="url(#win1b)"/>

  <rect x="90" y="152" width="26" height="26" rx="2" fill="url(#win1)"/>
  <rect x="128" y="152" width="26" height="26" rx="2" fill="#233A64"/>
  <rect x="204" y="152" width="26" height="26" rx="2" fill="url(#win1)"/>
</g>

<rect x="160" y="152" width="34" height="44" fill="#0A1226"/>
<rect x="160" y="152" width="34" height="4" fill="#D9584B"/>
<rect x="176" y="170" width="3" height="26" fill="#E8A33D" opacity="0.7"/>

<rect x="150" y="196" width="54" height="6" fill="#2A3F6B"/>
<rect x="145" y="202" width="64" height="6" fill="#233A64"/>

<circle cx="72" cy="188" r="10" fill="#4C8C6B" opacity="0.85"/>
<rect x="70" y="196" width="4" height="10" fill="#3A6B52"/>
<circle cx="285" cy="184" r="12" fill="#4C8C6B" opacity="0.85"/>
<rect x="283" y="194" width="4" height="12" fill="#3A6B52"/>

<rect x="70" y="60" width="185" height="3" fill="#D9584B" opacity="0.6"/>
</svg>
